<svg xmlns="http://www.w3.org/2000/svg" viewBox="278 255 84 84" fill="none" aria-hidden="true">
  <path fill="#00b0af" d="M 342.0625 327.371094 L 316.910156 334.515625 C 312.710938 335.707031 308.1875 334.578125 305.050781 331.550781 L 286.261719 313.421875 C 283.125 310.394531 281.847656 305.929688 282.910156 301.707031 L 289.273438 276.433594 C 290.339844 272.214844 293.582031 268.878906 297.78125 267.683594 L 322.933594 260.539062 C 327.136719 259.347656 331.65625 260.476562 334.792969 263.503906 L 353.582031 281.632812 C 356.71875 284.660156 357.996094 289.125 356.933594 293.347656 L 350.570312 318.621094 C 349.503906 322.839844 346.261719 326.175781 342.0625 327.371094"/>
  <path fill="#fff" d="M 335.925781 330.089844 L 310.492188 332.542969 C 306.242188 332.953125 302.097656 331.074219 299.617188 327.613281 L 284.769531 306.894531 C 282.285156 303.433594 281.847656 298.917969 283.613281 295.050781 L 294.195312 271.878906 C 295.964844 268.007812 299.671875 265.375 303.917969 264.964844 L 329.351562 262.511719 C 333.597656 262.101562 337.746094 263.980469 340.222656 267.441406 L 355.078125 288.160156 C 357.558594 291.621094 357.996094 296.136719 356.226562 300.003906 L 345.648438 323.175781 C 343.878906 327.042969 340.171875 329.679688 335.925781 330.089844"/>
  <path fill="#00b0af" d="M 334.5 314.050781 L 333.679688 314.050781 C 332.945312 314.074219 332.320312 314.683594 332.300781 315.414062 C 332.296875 318.160156 330.027344 320.394531 327.242188 320.394531 L 322.183594 320.394531 L 322.183594 316.207031 L 327.652344 316.207031 C 328.382812 316.207031 328.996094 315.660156 329.074219 314.960938 C 326.761719 314.476562 325.03125 312.46875 324.925781 310.128906 L 322.066406 307.3125 C 321.808594 307.054688 321.460938 306.910156 321.09375 306.898438 L 319.976562 306.898438 C 319.21875 306.921875 318.597656 307.550781 318.597656 308.304688 C 318.597656 308.683594 318.75 309.039062 319.023438 309.304688 L 322.453125 312.679688 L 319.714844 312.714844 L 319.34375 312.851562 L 319.03125 313.078125 L 318.875 313.253906 L 318.863281 313.273438 C 318.695312 313.5 318.605469 313.765625 318.597656 314.046875 L 318.597656 322.5625 C 318.621094 323.300781 319.226562 323.898438 319.984375 323.917969 L 327.242188 323.921875 L 327.824219 323.898438 L 328.207031 323.867188 C 331.917969 323.460938 334.933594 320.769531 335.699219 317.164062 C 335.824219 316.589844 335.886719 316 335.886719 315.410156 C 335.863281 314.671875 335.253906 314.074219 334.5 314.050781"/>
  <path fill="#00b0af" d="M 312.273438 317.527344 C 311.886719 316.90625 311.039062 316.683594 310.382812 317.03125 C 307.96875 318.402344 304.871094 317.582031 303.476562 315.203125 L 300.949219 310.886719 L 304.621094 308.796875 L 307.359375 313.460938 C 307.722656 314.085938 308.515625 314.332031 309.171875 314.046875 C 308.445312 311.824219 309.34375 309.351562 311.347656 308.09375 L 312.394531 304.246094 C 312.488281 303.898438 312.445312 303.527344 312.269531 303.210938 L 311.714844 302.261719 C 311.308594 301.617188 310.457031 301.40625 309.78125 301.789062 C 309.449219 301.980469 309.210938 302.289062 309.113281 302.65625 L 307.859375 307.257812 L 306.464844 304.941406 L 306.175781 304.707031 L 306.027344 304.628906 L 305.691406 304.519531 L 305.632812 304.519531 L 305.621094 304.507812 L 305.542969 304.496094 C 305.5 304.492188 305.457031 304.492188 305.410156 304.492188 C 305.175781 304.492188 304.945312 304.546875 304.734375 304.660156 L 297.246094 308.917969 C 296.609375 309.304688 296.386719 310.121094 296.742188 310.773438 L 300.472656 317.132812 L 300.789062 317.609375 L 300.898438 317.761719 C 303.113281 320.726562 306.988281 321.949219 310.542969 320.800781 C 311.109375 320.621094 311.660156 320.378906 312.179688 320.082031 C 312.816406 319.695312 313.039062 318.878906 312.683594 318.222656 Z M 312.273438 317.527344"/>
  <path fill="#00b0af" d="M 298.515625 301 C 298.863281 300.363281 298.636719 299.53125 298.007812 299.144531 C 296.832031 298.476562 295.992188 297.394531 295.648438 296.101562 C 295.304688 294.820312 295.488281 293.484375 296.160156 292.339844 L 298.6875 288.023438 L 302.363281 290.113281 L 299.628906 294.78125 C 299.261719 295.40625 299.441406 296.199219 300.019531 296.617188 C 301.617188 294.882812 304.238281 294.417969 306.34375 295.496094 L 310.25 294.464844 C 310.605469 294.371094 310.90625 294.148438 311.097656 293.839844 L 311.65625 292.890625 C 312.019531 292.222656 311.78125 291.394531 311.109375 291.011719 C 310.773438 290.824219 310.382812 290.773438 310.011719 290.875 L 305.332031 292.109375 L 306.695312 289.6875 L 306.738281 289.390625 L 306.710938 289.070312 L 306.699219 289.058594 L 306.675781 288.933594 L 306.628906 288.804688 L 306.605469 288.78125 L 306.605469 288.746094 C 306.484375 288.492188 306.300781 288.289062 306.0625 288.140625 L 298.570312 283.882812 C 297.910156 283.53125 297.078125 283.75 296.679688 284.386719 L 292.957031 290.746094 L 292.695312 291.253906 L 292.617188 291.421875 C 291.125 294.777344 291.96875 298.667969 294.722656 301.125 L 294.765625 301.164062 C 295.210938 301.558594 295.699219 301.90625 296.214844 302.199219 C 296.878906 302.550781 297.710938 302.332031 298.105469 301.699219 Z M 298.515625 301"/>
  <path fill="#00b0af" d="M 305.34375 281.003906 L 306.164062 281.003906 C 306.898438 280.980469 307.519531 280.371094 307.542969 279.644531 C 307.546875 276.898438 309.816406 274.664062 312.601562 274.664062 L 317.660156 274.660156 L 317.660156 278.847656 L 312.191406 278.847656 C 311.460938 278.847656 310.851562 279.398438 310.769531 280.097656 C 313.09375 280.59375 314.8125 282.597656 314.917969 284.929688 L 317.777344 287.746094 C 318.039062 288 318.382812 288.148438 318.75 288.15625 L 319.863281 288.15625 C 320.636719 288.132812 321.246094 287.515625 321.246094 286.75 C 321.246094 286.371094 321.09375 286.015625 320.820312 285.75 L 317.390625 282.375 L 320.128906 282.339844 L 320.488281 282.207031 L 320.632812 282.121094 L 320.988281 281.777344 C 321.148438 281.554688 321.238281 281.289062 321.246094 281.007812 L 321.246094 272.492188 C 321.222656 271.757812 320.613281 271.160156 319.859375 271.136719 L 312.40625 271.136719 L 311.828125 271.167969 L 311.636719 271.1875 C 307.921875 271.59375 304.910156 274.285156 304.144531 277.890625 C 304.019531 278.464844 303.957031 279.054688 303.957031 279.648438 C 303.980469 280.382812 304.589844 280.980469 305.34375 281.003906"/>
  <path fill="#00b0af" d="M 327.570312 277.53125 C 327.957031 278.148438 328.804688 278.371094 329.460938 278.027344 C 331.871094 276.65625 334.96875 277.472656 336.367188 279.851562 L 338.898438 284.167969 L 335.21875 286.257812 L 332.484375 281.59375 C 332.121094 280.972656 331.328125 280.726562 330.671875 281.007812 C 331.398438 283.230469 330.5 285.707031 328.496094 286.964844 L 327.449219 290.8125 C 327.355469 291.160156 327.398438 291.527344 327.574219 291.84375 L 328.128906 292.792969 C 328.535156 293.441406 329.386719 293.652344 330.0625 293.265625 C 330.394531 293.074219 330.632812 292.765625 330.730469 292.402344 L 331.984375 287.796875 L 333.375 290.109375 L 333.640625 290.332031 L 333.820312 290.429688 L 334.15625 290.539062 L 334.210938 290.539062 L 334.234375 290.550781 L 334.300781 290.558594 C 334.578125 290.585938 334.859375 290.527344 335.109375 290.394531 L 342.597656 286.136719 C 343.234375 285.75 343.457031 284.933594 343.101562 284.28125 L 339.371094 277.921875 L 339.164062 277.601562 L 338.945312 277.296875 C 336.730469 274.328125 332.851562 273.105469 329.300781 274.253906 C 328.734375 274.433594 328.183594 274.679688 327.664062 274.976562 C 327.027344 275.363281 326.804688 276.179688 327.160156 276.832031 Z M 327.570312 277.53125"/>
  <path fill="#00b0af" d="M 345.117188 293.925781 L 345.078125 293.890625 C 344.636719 293.5 344.148438 293.152344 343.628906 292.855469 C 342.96875 292.503906 342.132812 292.722656 341.738281 293.355469 L 341.328125 294.054688 C 340.980469 294.691406 341.207031 295.527344 341.835938 295.910156 C 343.011719 296.578125 343.847656 297.660156 344.195312 298.953125 C 344.539062 300.234375 344.355469 301.570312 343.683594 302.71875 L 341.15625 307.03125 L 337.480469 304.941406 L 340.214844 300.273438 C 340.582031 299.648438 340.402344 298.855469 339.824219 298.4375 C 338.234375 300.171875 335.609375 300.640625 333.5 299.558594 L 329.59375 300.59375 C 329.238281 300.6875 328.9375 300.90625 328.742188 301.21875 L 328.1875 302.164062 C 327.824219 302.832031 328.0625 303.660156 328.734375 304.042969 C 329.066406 304.234375 329.457031 304.28125 329.832031 304.179688 L 334.507812 302.945312 L 333.160156 305.332031 L 333.140625 305.414062 L 333.140625 305.46875 L 333.121094 305.507812 L 333.105469 305.667969 L 333.105469 305.734375 L 333.132812 305.984375 L 333.144531 305.996094 L 333.148438 306.058594 L 333.214844 306.261719 L 333.238281 306.308594 C 333.355469 306.5625 333.542969 306.765625 333.78125 306.914062 L 341.273438 311.171875 C 341.933594 311.523438 342.765625 311.304688 343.164062 310.671875 L 346.886719 304.308594 L 347.148438 303.804688 L 347.226562 303.632812 C 348.722656 300.277344 347.875 296.382812 345.117188 293.925781"/>
  <path fill="#00b0af" d="M 319.914062 292.929688 C 319.121094 292.929688 318.320312 293.128906 317.585938 293.546875 C 316.5 294.164062 315.726562 295.164062 315.40625 296.355469 C 315.089844 297.535156 315.257812 298.769531 315.875 299.828125 C 317.164062 302.023438 320.027344 302.777344 322.257812 301.507812 C 323.34375 300.890625 324.117188 299.894531 324.4375 298.699219 C 324.753906 297.519531 324.585938 296.285156 323.96875 295.230469 C 323.105469 293.757812 321.53125 292.929688 319.914062 292.929688"/>
  <path fill="#00b0af" d="M 330.179688 312.605469 C 331.695312 312.605469 332.933594 311.390625 332.9375 309.894531 C 332.933594 308.398438 331.695312 307.183594 330.179688 307.183594 C 328.65625 307.183594 327.421875 308.398438 327.421875 309.894531 C 327.421875 311.390625 328.65625 312.605469 330.179688 312.605469"/>
  <path fill="#00b0af" d="M 314.171875 309.746094 C 313.703125 309.746094 313.230469 309.863281 312.796875 310.109375 C 312.15625 310.476562 311.699219 311.0625 311.507812 311.765625 C 311.324219 312.460938 311.421875 313.191406 311.785156 313.8125 C 312.546875 315.109375 314.238281 315.554688 315.554688 314.804688 C 316.195312 314.441406 316.652344 313.855469 316.839844 313.148438 C 317.027344 312.453125 316.929688 311.726562 316.5625 311.101562 C 316.054688 310.234375 315.125 309.746094 314.171875 309.746094"/>
  <path fill="#00b0af" d="M 305.300781 297.742188 C 304.867188 297.5 304.390625 297.378906 303.925781 297.378906 C 302.96875 297.378906 302.039062 297.867188 301.53125 298.738281 C 301.164062 299.359375 301.066406 300.085938 301.253906 300.78125 C 301.441406 301.484375 301.898438 302.074219 302.539062 302.441406 C 303.855469 303.1875 305.546875 302.742188 306.308594 301.445312 C 306.675781 300.824219 306.773438 300.097656 306.585938 299.402344 C 306.398438 298.695312 305.941406 298.109375 305.300781 297.742188"/>
  <path fill="#00b0af" d="M 309.667969 287.871094 C 311.1875 287.871094 312.425781 286.65625 312.425781 285.164062 C 312.425781 283.667969 311.1875 282.449219 309.667969 282.449219 C 308.148438 282.449219 306.910156 283.667969 306.910156 285.164062 C 306.910156 286.65625 308.148438 287.871094 309.667969 287.871094"/>
  <path fill="#00b0af" d="M 327.050781 284.945312 C 327.691406 284.582031 328.148438 283.992188 328.335938 283.285156 C 328.519531 282.59375 328.421875 281.867188 328.058594 281.242188 C 327.546875 280.375 326.617188 279.886719 325.664062 279.886719 C 325.195312 279.886719 324.722656 280.003906 324.289062 280.25 C 323.648438 280.613281 323.191406 281.203125 323 281.90625 C 322.816406 282.601562 322.914062 283.328125 323.28125 283.953125 C 324.039062 285.25 325.730469 285.695312 327.050781 284.945312"/>
  <path fill="#00b0af" d="M 337.304688 292.617188 C 336.871094 292.371094 336.394531 292.253906 335.929688 292.253906 C 334.972656 292.253906 334.046875 292.738281 333.535156 293.609375 C 333.167969 294.234375 333.070312 294.960938 333.257812 295.65625 C 333.445312 296.359375 333.902344 296.945312 334.542969 297.3125 C 335.863281 298.0625 337.550781 297.617188 338.3125 296.320312 C 338.675781 295.695312 338.777344 294.96875 338.589844 294.269531 C 338.402344 293.566406 337.945312 292.980469 337.304688 292.617188"/>
</svg>
